# xmcd
#
# Track frame offsets: 
#        150
#        18600
#        43725
#        70388
#        81563
#        103688
#        121875
#        142050
#        164325
#        185213
#        203288
#        219000
#        235800
#        247913
#        266213
#        278663
#        300675
#        317475
#
# Disc length: 4411 seconds
#
# Revision: 2
# Processed by: cddbd v1.5.2PL0 Copyright (c) Steve Scherf et al.
# Submitted via: ExactAudioCopy v1.0b3
#
DISCID=05113912
DTITLE=古谷充とザ・フレッシュメン - ファンキー・ドライブ
DYEAR=1961
DGENRE=Asia-Jp-Jazz
TTITLE0=城ケ島の雨 [古谷充 - 稲見馨 - 大塚善章 - 奥村博一 - トム楢原]
TTITLE1=Arrow After Dark [古谷充 - 稲見馨 - 大塚善章 - 奥村博一 - トム楢原]
TTITLE2=Soul No.1 [古谷充 - 稲見馨 - 大塚善章 - 奥村博一 - トム楢原]
TTITLE3=I'll See You In My Dream [古谷充 - 稲見馨 - 大塚善章 - 奥村博一 - トム楢原]
TTITLE4=Free Soul [古谷充 - 稲見馨 - 大塚善章 - 奥村博一 - トム楢原]
TTITLE5=Taboo [古谷充 - 稲見馨 - 大塚善章 - 奥村博一 - トム楢原]
TTITLE6=暗い夜 - Loose Lousy Blues [古谷充 - 稲見馨 - 大塚善章 - 奥村博一 - トム楢原]
TTITLE7=Dig [古谷充 - 稲見馨 - 大塚善章 - 奥村博一 - トム楢原]
TTITLE8=You Don't Know What Love Is [古谷充 - 稲見馨 - 大塚善章 - 奥村博一 - トム楢原]
TTITLE9=Stranger In Paradise [古谷充 - 稲見馨 - 大塚善章 - 奥村博一 - トム楢原]
TTITLE10=黒田節 [古谷充 - 稲見馨 - 大塚善章 - 奥村博一 - トム楢原]
TTITLE11=通りゃんせ [古谷充 - 稲見馨 - 大塚善章 - 奥村博一 - トム楢原]
TTITLE12=祇園小唄 [古谷充 - 稲見馨 - 大塚善章 - 奥村博一 - トム楢原]
TTITLE13=佐渡おけさ [古谷充 - 稲見馨 - 大塚善章 - 奥村博一 - トム楢原]
TTITLE14=五ッ木の子守唄 [古谷充 - 稲見馨 - 大塚善章 - 奥村博一 - トム楢原]
TTITLE15=城ケ島の雨 [古谷充 - 稲見馨 - 大塚善章 - 奥村博一 - トム楢原]
TTITLE16=お江戸日本橋 [古谷充 - 稲見馨 - 大塚善章 - 奥村博一 - トム楢原]
TTITLE17=ソーラン節 [古谷充 - 稲見馨 - 大塚善章 - 奥村博一 - トム楢原]
EXTD=YEAR: 2006
EXTT0=
EXTT1=
EXTT2=
EXTT3=
EXTT4=
EXTT5=
EXTT6=
EXTT7=
EXTT8=
EXTT9=
EXTT10=
EXTT11=
EXTT12=
EXTT13=
EXTT14=
EXTT15=
EXTT16=
EXTT17=
PLAYORDER=
